# xmcd
#
# Track frame offsets: 
#        187
#        21062
#        38217
#        60670
#        77220
#        95822
#        110007
#        126087
#        141940
#        166540
#
# Disc length: 2486 seconds
#
# Revision: 2
# Processed by: cddbd v1.5.2PL0 Copyright (c) Steve Scherf et al.
# Submitted via: ExactAudioCopy v0.99pb1
#
DISCID=8209b40a
DTITLE=Bee Gees - Main Course
DYEAR=1975
DGENRE=Pop
TTITLE0=Nights On Broadway
TTITLE1=Jive Talkin'
TTITLE2=Wind Of Change
TTITLE3=Songbird
TTITLE4=Fanny (Be Tender With My Love)
TTITLE5=All This Making Love
TTITLE6=Country Lanes
TTITLE7=Come On Over
TTITLE8=Edge Of The Universe
TTITLE9=Baby As You Turn Away
EXTD=YEAR: 1975
EXTT0=
EXTT1=
EXTT2=
EXTT3=
EXTT4=
EXTT5=
EXTT6=
EXTT7=
EXTT8=
EXTT9=
PLAYORDER=
